<?xml version="1.0" encoding="utf-8"?><svg viewBox="0 0 20 20" xmlns="http://www.w3.org/2000/svg" xmlns:xlink="http://www.w3.org/1999/xlink"><style>:root>svg{display:none}:root>svg:target{display:block}</style><svg viewBox="0 0 20 20" id="circle" xmlns="http://www.w3.org/2000/svg"><path d="M10 0C4.477 0 0 4.477 0 10s4.477 10 10 10 10-4.477 10-10C19.994 4.48 15.52.006 10 0z" fill-opacity=".15"/><path d="M15.773 6.833l-5.705 7.741a.843.843 0 01-1.191.157l-4.074-3.257a.834.834 0 011.042-1.302l3.397 2.718 5.189-7.042a.833.833 0 111.342.985z"/></svg><svg viewBox="0 0 20 20" id="circle-hover" xmlns="http://www.w3.org/2000/svg"><path opacity=".1" d="M10 0C4.477 0 0 4.477 0 10s4.477 10 10 10 10-4.477 10-10C19.994 4.48 15.52.006 10 0z"/><path d="M15.772 6.833l-5.704 7.741a.843.843 0 01-1.191.157l-4.074-3.257a.834.834 0 011.042-1.302l3.397 2.718 5.189-7.042a.833.833 0 111.341.985z"/></svg></svg>